<svg width="135" height="185" viewBox="0 0 135 185" fill="none" xmlns="http://www.w3.org/2000/svg">
<path d="M86.2538 104.436L83.3849 101.493C83.5232 101.636 83.6886 101.75 83.8715 101.829C84.0545 101.908 84.2512 101.949 84.4503 101.951C84.6449 101.952 84.8379 101.916 85.0191 101.845C85.1111 101.807 85.1994 101.761 85.2827 101.706C85.3261 101.679 85.3678 101.65 85.4076 101.617L85.4825 101.556L99.2554 88.1722L99.2887 88.1361C99.4266 88.0034 99.5356 87.8437 99.6089 87.6668C99.6822 87.49 99.7181 87.2999 99.7145 87.1085C99.7108 86.9171 99.6677 86.7285 99.5877 86.5546C99.5077 86.3807 99.3927 86.2252 99.2498 86.0979L102.069 88.9052C101.941 88.765 101.786 88.653 101.613 88.5763C101.44 88.4997 101.252 88.4601 101.063 88.4601C100.874 88.4601 100.686 88.4997 100.513 88.5763C100.34 88.653 100.185 88.765 100.057 88.9052L100.024 88.9386L86.2482 102.323C86.2257 102.347 86.2044 102.372 86.1844 102.398C86.1539 102.437 86.1234 102.478 86.0956 102.52C86.041 102.603 85.9936 102.69 85.9541 102.781C85.839 103.06 85.8079 103.366 85.8646 103.662C85.9213 103.958 86.0633 104.231 86.2732 104.447L86.2538 104.436Z" fill="url(#paint0_linear)"/>
<path style="mix-blend-mode:screen" d="M85.3576 102.467C85.2106 102.317 88.3403 99.0323 92.3356 95.1448C96.331 91.2572 99.691 88.2027 99.827 88.3721C99.9629 88.5415 96.8388 91.8126 92.8462 95.7001C88.8536 99.5877 85.4963 102.623 85.3576 102.467Z" fill="url(#paint1_radial)"/>
<path d="M46.5582 136.058L48.6752 138.23C48.5729 138.124 48.4505 138.039 48.3152 137.981C48.1799 137.923 48.0344 137.892 47.8872 137.891C47.7439 137.89 47.6018 137.917 47.4683 137.969C47.4002 137.996 47.3351 138.031 47.274 138.072L47.1825 138.135L47.127 138.183L36.9693 148.051L36.9444 148.076C36.8433 148.175 36.7635 148.293 36.71 148.424C36.6565 148.554 36.6303 148.694 36.6332 148.836C36.636 148.977 36.6679 149.116 36.7266 149.244C36.7854 149.372 36.8699 149.487 36.9749 149.581L34.9079 147.515C35.002 147.619 35.1166 147.701 35.2444 147.758C35.3722 147.814 35.5103 147.843 35.65 147.843C35.7897 147.843 35.9279 147.814 36.0557 147.758C36.1835 147.701 36.2981 147.619 36.3922 147.515L36.4172 147.49L46.5776 137.616C46.5955 137.601 46.6114 137.583 46.6248 137.563C46.6488 137.534 46.671 137.504 46.6914 137.472C46.8154 137.29 46.8812 137.075 46.8801 136.855C46.882 136.708 46.8545 136.561 46.7993 136.424C46.744 136.288 46.6621 136.163 46.5582 136.058Z" fill="url(#paint2_linear)"/>
<path style="mix-blend-mode:screen" d="M47.4655 137.263C47.5765 137.375 45.2209 139.846 42.216 142.77C39.2112 145.694 36.6808 147.982 36.5892 147.865C36.4977 147.749 38.8366 145.277 41.8415 142.353C44.8463 139.429 47.3601 137.144 47.4655 137.263Z" fill="url(#paint3_radial)"/>
<path d="M49.6297 102.959L44.7714 107.377C45.0066 107.165 45.1974 106.909 45.3327 106.623C45.468 106.337 45.545 106.027 45.5594 105.711C45.5743 105.401 45.5271 105.091 45.4207 104.8C45.3675 104.65 45.2987 104.507 45.2153 104.372C45.1742 104.303 45.1288 104.236 45.0794 104.172C45.0523 104.127 45.0206 104.086 44.9851 104.047L24.3257 81.3801L24.273 81.3245C23.3629 80.3443 22.0006 80.3804 21.0101 81.2829L25.6408 76.9649C24.6475 77.8674 24.6309 79.1864 25.5382 80.1722L25.5909 80.2277L46.2475 102.886C46.2822 102.924 46.3202 102.959 46.3612 102.989C46.4219 103.044 46.4858 103.095 46.5527 103.142C46.6831 103.234 46.8214 103.314 46.9661 103.381C47.2535 103.508 47.5621 103.581 47.8761 103.595C48.5214 103.621 49.1513 103.393 49.6297 102.959Z" fill="url(#paint4_linear)"/>
<path style="mix-blend-mode:screen" d="M46.4306 104.289C46.1864 104.519 41.1007 99.3572 35.0993 92.7872C29.0979 86.2173 24.4228 80.697 24.6781 80.4859C24.9333 80.2749 30.0163 85.4314 36.0149 91.9986C42.0135 98.5658 46.6886 104.078 46.4306 104.289Z" fill="url(#paint5_radial)"/>
<path d="M98.1095 149.487L95.715 151.661C95.8324 151.556 95.9273 151.427 95.9941 151.284C96.0608 151.141 96.098 150.986 96.1035 150.828C96.1171 150.597 96.058 150.366 95.9342 150.17C95.9153 150.135 95.893 150.101 95.8676 150.07C95.8533 150.049 95.8375 150.028 95.8205 150.009L85.6462 138.849L85.6184 138.821C85.5161 138.711 85.3925 138.623 85.2552 138.562C85.1178 138.501 84.9695 138.469 84.8193 138.467C84.6691 138.465 84.5201 138.494 84.3813 138.552C84.2426 138.609 84.1169 138.694 84.0119 138.802L86.2926 136.675C86.1792 136.771 86.0873 136.89 86.0227 137.024C85.9581 137.159 85.9222 137.305 85.9175 137.454C85.9128 137.603 85.9393 137.751 85.9953 137.889C86.0513 138.027 86.1356 138.151 86.2427 138.255L86.2677 138.283L96.4447 149.44C96.4619 149.459 96.4804 149.476 96.5002 149.493C96.5308 149.518 96.5613 149.543 96.5946 149.565C96.6582 149.611 96.726 149.651 96.7971 149.684C96.9392 149.747 97.0916 149.782 97.2466 149.79C97.5626 149.805 97.8722 149.696 98.1095 149.487Z" fill="url(#paint6_linear)"/>
<path style="mix-blend-mode:screen" d="M96.5336 150.142C96.4143 150.256 93.9088 147.713 90.9539 144.478C87.999 141.243 85.6822 138.521 85.8182 138.416C85.9541 138.31 88.4485 140.854 91.4034 144.089C94.3583 147.324 96.6612 150.037 96.5336 150.142Z" fill="url(#paint7_radial)"/>
<path d="M75.2138 97.2162L65.0506 95.8084C65.543 95.8785 66.0443 95.8497 66.5255 95.7239C67.0066 95.598 67.4579 95.3775 67.8529 95.0753C68.2418 94.7821 68.5689 94.4151 68.8157 93.9951C68.9404 93.7806 69.0445 93.5546 69.1265 93.3203C69.1681 93.2009 69.2014 93.0788 69.2319 92.9566C69.2552 92.8783 69.2728 92.7985 69.2846 92.7178L75.9852 45.2343L76.0018 45.1121C76.2654 43.0239 74.8781 41.4217 72.8 41.144L82.6136 42.3797C80.5382 42.102 78.9262 43.3988 78.6515 45.4731L78.6349 45.5897L71.9343 93.0843C71.9239 93.1653 71.9192 93.247 71.9204 93.3287C71.9121 93.4553 71.9121 93.5824 71.9204 93.7091C71.9395 93.9577 71.9813 94.204 72.0453 94.445C72.1782 94.9168 72.3984 95.3595 72.6945 95.75C72.9977 96.1481 73.3762 96.4824 73.8085 96.734C74.2407 96.9855 74.7183 97.1494 75.2138 97.2162Z" fill="url(#paint8_linear)"/>
<path style="mix-blend-mode:screen" d="M70.4222 94.7115C69.9033 94.6449 71.0548 83.371 72.9859 69.5842C74.917 55.7973 76.9036 44.6484 77.4252 44.7456C77.9468 44.8428 76.7926 56.1111 74.8615 69.8924C72.9304 83.6737 70.9355 94.8087 70.4222 94.7115Z" fill="url(#paint9_radial)"/>
<path d="M97.4769 63.6557C99.4611 60.2074 102.423 57.4255 105.987 55.6618C109.551 53.898 113.557 53.2317 117.5 53.7471C121.442 54.2624 125.143 55.9363 128.135 58.557C131.127 61.1776 133.275 64.6274 134.308 68.4701C135.341 72.3127 135.212 76.3755 133.937 80.1447C132.663 83.9139 130.3 87.2201 127.148 89.6453C123.996 92.0705 120.196 93.5057 116.228 93.7694C112.261 94.0331 108.305 93.1134 104.86 91.1266C102.569 89.8123 100.559 88.0579 98.9469 85.9643C97.3348 83.8706 96.1518 81.4788 95.4658 78.9263C94.7797 76.3738 94.6043 73.7108 94.9494 71.0902C95.2945 68.4696 96.1535 65.9431 97.4769 63.6557Z" fill="url(#paint10_linear)"/>
<path d="M97.4769 63.6557C99.4611 60.2074 102.422 57.4255 105.987 55.6618C109.551 53.898 113.557 53.2317 117.5 53.7471C121.442 54.2624 125.143 55.9363 128.135 58.557C131.127 61.1776 133.275 64.6274 134.308 68.4701C135.341 72.3127 135.212 76.3755 133.937 80.1447C132.663 83.9139 130.3 87.2201 127.148 89.6453C123.996 92.0705 120.196 93.5057 116.228 93.7694C112.261 94.0331 108.305 93.1134 104.86 91.1266C100.243 88.4621 96.8713 84.0718 95.4869 78.9206C94.1025 73.7694 94.8182 68.2789 97.4769 63.6557Z" fill="url(#paint11_radial)"/>
<path style="mix-blend-mode:multiply" d="M97.4769 63.6557C99.4611 60.2074 102.422 57.4255 105.987 55.6618C109.551 53.898 113.557 53.2317 117.5 53.7471C121.442 54.2624 125.143 55.9363 128.135 58.557C131.127 61.1776 133.275 64.6274 134.308 68.4701C135.341 72.3127 135.212 76.3755 133.937 80.1447C132.663 83.9139 130.3 87.2201 127.148 89.6453C123.996 92.0705 120.196 93.5057 116.228 93.7694C112.261 94.0331 108.305 93.1134 104.86 91.1266C100.243 88.4621 96.8713 84.0718 95.4869 78.9206C94.1025 73.7694 94.8182 68.2789 97.4769 63.6557Z" fill="url(#paint12_radial)"/>
<g style="mix-blend-mode:multiply">
<path style="mix-blend-mode:multiply" d="M97.4769 63.6557C99.4611 60.2074 102.422 57.4255 105.987 55.6618C109.551 53.898 113.557 53.2317 117.5 53.7471C121.442 54.2624 125.143 55.9363 128.135 58.557C131.127 61.1776 133.275 64.6274 134.308 68.4701C135.341 72.3127 135.212 76.3755 133.937 80.1447C132.663 83.9139 130.3 87.2201 127.148 89.6453C123.996 92.0705 120.196 93.5057 116.228 93.7694C112.261 94.0331 108.305 93.1134 104.86 91.1266C100.243 88.4621 96.8713 84.0718 95.4869 78.9206C94.1025 73.7694 94.8182 68.2789 97.4769 63.6557Z" fill="url(#paint13_radial)"/>
<g style="mix-blend-mode:multiply">
<path style="mix-blend-mode:multiply" d="M97.4769 63.6557C99.4611 60.2074 102.422 57.4255 105.987 55.6618C109.551 53.898 113.557 53.2317 117.5 53.7471C121.442 54.2624 125.143 55.9363 128.135 58.557C131.127 61.1776 133.275 64.6274 134.308 68.4701C135.341 72.3127 135.212 76.3755 133.937 80.1447C132.663 83.9139 130.3 87.2201 127.148 89.6453C123.996 92.0705 120.196 93.5057 116.228 93.7694C112.261 94.0331 108.305 93.1134 104.86 91.1266C100.243 88.4621 96.8713 84.0718 95.4869 78.9206C94.1025 73.7694 94.8182 68.2789 97.4769 63.6557Z" fill="url(#paint14_radial)"/>
</g>
</g>
<path d="M93.3123 154.993C95.221 151.674 98.0705 148.996 101.5 147.298C104.93 145.6 108.786 144.959 112.581 145.455C116.375 145.951 119.937 147.562 122.816 150.085C125.695 152.607 127.762 155.928 128.755 159.626C129.748 163.325 129.622 167.235 128.394 170.862C127.166 174.489 124.89 177.67 121.855 180.002C118.82 182.335 115.161 183.713 111.343 183.964C107.525 184.215 103.718 183.327 100.404 181.412C98.2002 180.148 96.2677 178.461 94.7176 176.447C93.1674 174.433 92.0301 172.133 91.3711 169.678C90.7121 167.223 90.5443 164.662 90.8774 162.142C91.2106 159.622 92.038 157.192 93.3123 154.993Z" fill="url(#paint15_linear)"/>
<path d="M93.3123 154.993C95.2206 151.674 98.07 148.995 101.5 147.297C104.93 145.599 108.786 144.957 112.581 145.452C116.375 145.948 119.937 147.559 122.817 150.082C125.696 152.605 127.763 155.925 128.756 159.624C129.749 163.323 129.623 167.233 128.395 170.86C127.167 174.487 124.891 177.668 121.856 180.001C118.82 182.333 115.162 183.712 111.343 183.962C107.525 184.213 103.718 183.325 100.404 181.409C95.9678 178.843 92.7298 174.621 91.4002 169.669C90.0707 164.717 90.7584 159.439 93.3123 154.993Z" fill="url(#paint16_radial)"/>
<path style="mix-blend-mode:multiply" d="M93.3123 154.993C95.2206 151.674 98.07 148.995 101.5 147.297C104.93 145.599 108.786 144.957 112.581 145.452C116.375 145.948 119.937 147.559 122.817 150.082C125.696 152.605 127.763 155.925 128.756 159.624C129.749 163.323 129.623 167.233 128.395 170.86C127.167 174.487 124.891 177.668 121.856 180.001C118.82 182.333 115.162 183.712 111.343 183.962C107.525 184.213 103.718 183.325 100.404 181.409C95.9678 178.843 92.7298 174.621 91.4002 169.669C90.0707 164.717 90.7584 159.439 93.3123 154.993Z" fill="url(#paint17_radial)"/>
<g style="mix-blend-mode:multiply">
<path style="mix-blend-mode:multiply" d="M93.3123 154.993C95.2206 151.674 98.07 148.995 101.5 147.297C104.93 145.599 108.786 144.957 112.581 145.452C116.375 145.948 119.937 147.559 122.817 150.082C125.696 152.605 127.763 155.925 128.756 159.624C129.749 163.323 129.623 167.233 128.395 170.86C127.167 174.487 124.891 177.668 121.856 180.001C118.82 182.333 115.162 183.712 111.343 183.962C107.525 184.213 103.718 183.325 100.404 181.409C95.9678 178.843 92.7298 174.621 91.4002 169.669C90.0707 164.717 90.7584 159.439 93.3123 154.993Z" fill="url(#paint18_radial)"/>
<g style="mix-blend-mode:multiply">
<path style="mix-blend-mode:multiply" d="M93.3123 154.993C95.2206 151.674 98.07 148.995 101.5 147.297C104.93 145.599 108.786 144.957 112.581 145.452C116.375 145.948 119.937 147.559 122.817 150.082C125.696 152.605 127.763 155.925 128.756 159.624C129.749 163.323 129.623 167.233 128.395 170.86C127.167 174.487 124.891 177.668 121.856 180.001C118.82 182.333 115.162 183.712 111.343 183.962C107.525 184.213 103.718 183.325 100.404 181.409C95.9678 178.843 92.7298 174.621 91.4002 169.669C90.0707 164.717 90.7584 159.439 93.3123 154.993Z" fill="url(#paint19_radial)"/>
</g>
</g>
<path d="M63.5413 10.3825C65.7712 6.72611 69.0343 3.81359 72.9181 2.01322C76.8019 0.212855 81.1319 -0.394499 85.3606 0.26796C89.5893 0.930418 93.5267 2.83294 96.6751 5.73494C99.8234 8.63695 102.041 12.4081 103.048 16.5716C104.055 20.735 103.806 25.1038 102.332 29.1254C100.858 33.147 98.2251 36.6409 94.7671 39.1653C91.3091 41.6896 87.1808 43.1311 82.9042 43.3073C78.6277 43.4836 74.3949 42.3867 70.7412 40.1555C68.3106 38.678 66.1954 36.7346 64.5171 34.4368C62.8389 32.139 61.6306 29.5322 60.9616 26.7659C60.2926 23.9995 60.1761 21.1282 60.6188 18.3167C61.0615 15.5052 62.0547 12.8089 63.5413 10.3825Z" fill="url(#paint20_linear)"/>
<path d="M63.544 10.3853C65.7736 6.72823 69.0367 3.81504 72.9206 2.01412C76.8045 0.213198 81.1349 -0.394548 85.364 0.267741C89.593 0.93003 93.5309 2.83261 96.6795 5.73485C99.8281 8.63709 102.046 12.4086 103.053 16.5725C104.06 20.7363 103.81 25.1055 102.335 29.1273C100.861 33.1491 98.2278 36.643 94.7691 39.1671C91.3104 41.6912 87.1815 43.132 82.9045 43.3075C78.6276 43.4829 74.3947 42.385 70.7412 40.1527C65.8432 37.16 62.3335 32.3428 60.9838 26.7605C59.6341 21.1783 60.555 15.2881 63.544 10.3853Z" fill="url(#paint21_radial)"/>
<path style="mix-blend-mode:multiply" d="M63.544 10.3853C65.7736 6.72823 69.0367 3.81504 72.9206 2.01412C76.8045 0.213198 81.1349 -0.394548 85.364 0.267741C89.593 0.93003 93.5309 2.83261 96.6795 5.73485C99.8281 8.63709 102.046 12.4086 103.053 16.5725C104.06 20.7363 103.81 25.1055 102.335 29.1273C100.861 33.1491 98.2278 36.643 94.7691 39.1671C91.3104 41.6912 87.1815 43.132 82.9045 43.3075C78.6276 43.4829 74.3947 42.385 70.7412 40.1527C65.8432 37.16 62.3335 32.3428 60.9838 26.7605C59.6341 21.1783 60.555 15.2881 63.544 10.3853Z" fill="url(#paint22_radial)"/>
<g style="mix-blend-mode:multiply">
<path style="mix-blend-mode:multiply" d="M63.544 10.3853C65.7736 6.72823 69.0367 3.81504 72.9206 2.01412C76.8045 0.213198 81.1349 -0.394548 85.364 0.267741C89.593 0.93003 93.5309 2.83261 96.6795 5.73485C99.8281 8.63709 102.046 12.4086 103.053 16.5725C104.06 20.7363 103.81 25.1055 102.335 29.1273C100.861 33.1491 98.2278 36.643 94.7691 39.1671C91.3104 41.6912 87.1815 43.132 82.9045 43.3075C78.6276 43.4829 74.3947 42.385 70.7412 40.1527C65.8432 37.16 62.3335 32.3428 60.9838 26.7605C59.6341 21.1783 60.555 15.2881 63.544 10.3853Z" fill="url(#paint23_radial)"/>
<g style="mix-blend-mode:multiply">
<path style="mix-blend-mode:multiply" d="M63.544 10.3853C65.7736 6.72823 69.0367 3.81504 72.9206 2.01412C76.8045 0.213198 81.1349 -0.394548 85.364 0.267741C89.593 0.93003 93.5309 2.83261 96.6795 5.73485C99.8281 8.63709 102.046 12.4086 103.053 16.5725C104.06 20.7363 103.81 25.1055 102.335 29.1273C100.861 33.1491 98.2278 36.643 94.7691 39.1671C91.3104 41.6912 87.1815 43.132 82.9045 43.3075C78.6276 43.4829 74.3947 42.385 70.7412 40.1527C65.8432 37.16 62.3335 32.3428 60.9838 26.7605C59.6341 21.1783 60.555 15.2881 63.544 10.3853Z" fill="url(#paint24_radial)"/>
</g>
</g>
<path d="M2.79513 62.9226C4.12041 60.6191 6.0984 58.7607 8.47899 57.5823C10.8596 56.4039 13.5359 55.9584 16.1694 56.3022C18.803 56.646 21.2755 57.7636 23.2745 59.5137C25.2734 61.2638 26.7089 63.5678 27.3995 66.1344C28.0901 68.701 28.0047 71.4149 27.1543 73.9329C26.3038 76.451 24.7263 78.6601 22.6214 80.2809C20.5164 81.9018 17.9786 82.8616 15.3286 83.0389C12.6787 83.2163 10.0357 82.6032 7.73384 81.2773C6.20196 80.4 4.85841 79.2283 3.78041 77.8297C2.70241 76.4311 1.91121 74.833 1.45227 73.1274C0.993335 71.4217 0.875713 69.6421 1.10616 67.8909C1.33662 66.1396 1.9106 64.4511 2.79513 62.9226Z" fill="url(#paint25_linear)"/>
<path d="M2.79514 62.9226C4.12009 60.6188 6.09791 58.7599 8.47847 57.5811C10.859 56.4022 13.5354 55.9564 16.1692 56.2999C18.8029 56.6434 21.2758 57.7609 23.2749 59.5109C25.2741 61.261 26.7098 63.5651 27.4006 66.1318C28.0913 68.6985 28.006 71.4126 27.1555 73.9308C26.3049 76.449 24.7274 78.6583 22.6222 80.2791C20.5171 81.9 17.979 82.8597 15.3289 83.0369C12.6788 83.2141 10.0357 82.6008 7.73385 81.2746C4.64909 79.4947 2.39632 76.5623 1.47032 73.1213C0.544317 69.6803 1.02081 66.0122 2.79514 62.9226Z" fill="url(#paint26_radial)"/>
<path style="mix-blend-mode:multiply" d="M2.79514 62.9226C4.12009 60.6188 6.09791 58.7599 8.47847 57.5811C10.859 56.4022 13.5354 55.9564 16.1692 56.2999C18.8029 56.6434 21.2758 57.7609 23.2749 59.5109C25.2741 61.261 26.7098 63.5651 27.4006 66.1318C28.0913 68.6985 28.006 71.4126 27.1555 73.9308C26.3049 76.449 24.7274 78.6583 22.6222 80.2791C20.5171 81.9 17.979 82.8597 15.3289 83.0369C12.6788 83.2141 10.0357 82.6008 7.73385 81.2746C4.64909 79.4947 2.39632 76.5623 1.47032 73.1213C0.544317 69.6803 1.02081 66.0122 2.79514 62.9226Z" fill="url(#paint27_radial)"/>
<g style="mix-blend-mode:multiply">
<path style="mix-blend-mode:multiply" d="M2.79514 62.9226C4.12009 60.6188 6.09791 58.7599 8.47847 57.5811C10.859 56.4022 13.5354 55.9564 16.1692 56.2999C18.8029 56.6434 21.2758 57.7609 23.2749 59.5109C25.2741 61.261 26.7098 63.5651 27.4006 66.1318C28.0913 68.6985 28.006 71.4126 27.1555 73.9308C26.3049 76.449 24.7274 78.6583 22.6222 80.2791C20.5171 81.9 17.979 82.8597 15.3289 83.0369C12.6788 83.2141 10.0357 82.6008 7.73385 81.2746C4.64909 79.4947 2.39632 76.5623 1.47032 73.1213C0.544317 69.6803 1.02081 66.0122 2.79514 62.9226Z" fill="url(#paint28_radial)"/>
<g style="mix-blend-mode:multiply">
<path style="mix-blend-mode:multiply" d="M2.79514 62.9226C4.12009 60.6188 6.09791 58.7599 8.47847 57.5811C10.859 56.4022 13.5354 55.9564 16.1692 56.2999C18.8029 56.6434 21.2758 57.7609 23.2749 59.5109C25.2741 61.261 26.7098 63.5651 27.4006 66.1318C28.0913 68.6985 28.006 71.4126 27.1555 73.9308C26.3049 76.449 24.7274 78.6583 22.6222 80.2791C20.5171 81.9 17.979 82.8597 15.3289 83.0369C12.6788 83.2141 10.0357 82.6008 7.73385 81.2746C4.64909 79.4947 2.39632 76.5623 1.47032 73.1213C0.544317 69.6803 1.02081 66.0122 2.79514 62.9226Z" fill="url(#paint29_radial)"/>
</g>
</g>
<path d="M15.4748 151.878C16.8272 149.529 18.845 147.635 21.2732 146.434C23.7013 145.234 26.4307 144.781 29.1161 145.133C31.8015 145.485 34.3223 146.626 36.3596 148.412C38.397 150.197 39.8594 152.548 40.562 155.166C41.2645 157.783 41.1755 160.551 40.3064 163.118C39.4372 165.685 37.8269 167.937 35.6791 169.588C33.5312 171.239 30.9424 172.216 28.2399 172.394C25.5375 172.573 22.8428 171.945 20.4968 170.591C18.9361 169.695 17.5675 168.5 16.4697 167.074C15.3719 165.647 14.5666 164.018 14.0999 162.279C13.6333 160.54 13.5145 158.726 13.7505 156.941C13.9864 155.156 14.5724 153.435 15.4748 151.878Z" fill="url(#paint30_linear)"/>
<path d="M15.4749 151.878C16.8272 149.529 18.845 147.635 21.2732 146.434C23.7013 145.234 26.4307 144.781 29.1161 145.133C31.8015 145.485 34.3223 146.626 36.3597 148.412C38.397 150.197 39.8595 152.548 40.562 155.166C41.2645 157.783 41.1756 160.551 40.3064 163.118C39.4372 165.685 37.8269 167.937 35.6791 169.588C33.5312 171.239 30.9424 172.216 28.2399 172.394C25.5375 172.573 22.8428 171.945 20.4968 170.591C17.3536 168.774 15.0593 165.782 14.1178 162.274C13.1762 158.765 13.6643 155.026 15.4749 151.878Z" fill="url(#paint31_radial)"/>
<path style="mix-blend-mode:multiply" d="M15.4749 151.878C16.8272 149.529 18.845 147.635 21.2732 146.434C23.7013 145.234 26.4307 144.781 29.1161 145.133C31.8015 145.485 34.3223 146.626 36.3597 148.412C38.397 150.197 39.8595 152.548 40.562 155.166C41.2645 157.783 41.1756 160.551 40.3064 163.118C39.4372 165.685 37.8269 167.937 35.6791 169.588C33.5312 171.239 30.9424 172.216 28.2399 172.394C25.5375 172.573 22.8428 171.945 20.4968 170.591C17.3536 168.774 15.0593 165.782 14.1178 162.274C13.1762 158.765 13.6643 155.026 15.4749 151.878Z" fill="url(#paint32_radial)"/>
<g style="mix-blend-mode:multiply">
<path style="mix-blend-mode:multiply" d="M15.4749 151.878C16.8272 149.529 18.845 147.635 21.2732 146.434C23.7013 145.234 26.4307 144.781 29.1161 145.133C31.8015 145.485 34.3223 146.626 36.3597 148.412C38.397 150.197 39.8595 152.548 40.562 155.166C41.2645 157.783 41.1756 160.551 40.3064 163.118C39.4372 165.685 37.8269 167.937 35.6791 169.588C33.5312 171.239 30.9424 172.216 28.2399 172.394C25.5375 172.573 22.8428 171.945 20.4968 170.591C17.3536 168.774 15.0593 165.782 14.1178 162.274C13.1762 158.765 13.6643 155.026 15.4749 151.878Z" fill="url(#paint33_radial)"/>
<g style="mix-blend-mode:multiply">
<path style="mix-blend-mode:multiply" d="M15.4749 151.878C16.8272 149.529 18.845 147.635 21.2732 146.434C23.7013 145.234 26.4307 144.781 29.1161 145.133C31.8015 145.485 34.3223 146.626 36.3597 148.412C38.397 150.197 39.8595 152.548 40.562 155.166C41.2645 157.783 41.1756 160.551 40.3064 163.118C39.4372 165.685 37.8269 167.937 35.6791 169.588C33.5312 171.239 30.9424 172.216 28.2399 172.394C25.5375 172.573 22.8428 171.945 20.4968 170.591C17.3536 168.774 15.0593 165.782 14.1178 162.274C13.1762 158.765 13.6643 155.026 15.4749 151.878Z" fill="url(#paint34_radial)"/>
</g>
</g>
<path d="M89.2697 108.815C91.5691 113.297 92.4889 118.361 91.9128 123.366C91.3368 128.371 89.2908 133.092 86.0335 136.934C82.7763 140.775 78.454 143.564 73.6133 144.947C68.7727 146.33 63.6309 146.245 58.8383 144.703C54.0456 143.162 49.8173 140.233 46.688 136.286C43.5587 132.34 41.6689 127.553 41.2576 122.532C40.8463 117.511 41.932 112.48 44.3773 108.076C46.8226 103.672 50.5178 100.093 54.9956 97.791C57.9677 96.2544 61.2138 95.3206 64.5475 95.0432C67.8813 94.7659 71.2369 95.1504 74.4217 96.1748C77.6065 97.1991 80.5577 98.8431 83.1058 101.012C85.6539 103.182 87.7486 105.833 89.2697 108.815Z" fill="url(#paint35_linear)"/>
<path d="M89.267 108.818C91.5664 113.3 92.4863 118.364 91.91 123.369C91.3338 128.374 89.2875 133.096 86.0299 136.938C82.7722 140.779 78.4495 143.567 73.6084 144.95C68.7673 146.333 63.6253 146.247 58.8326 144.705C54.0399 143.163 49.8117 140.233 46.6829 136.286C43.554 132.339 41.6649 127.552 41.2545 122.53C40.8441 117.509 41.9308 112.478 44.3772 108.074C46.8236 103.671 50.5198 100.092 54.9984 97.791C61.0038 94.7055 67.9879 94.1337 74.4145 96.2016C80.841 98.2695 86.1836 102.808 89.267 108.818Z" fill="url(#paint36_radial)"/>
<path style="mix-blend-mode:multiply" d="M89.267 108.818C91.5664 113.3 92.4863 118.364 91.91 123.369C91.3338 128.374 89.2875 133.096 86.0299 136.938C82.7722 140.779 78.4495 143.567 73.6084 144.95C68.7673 146.333 63.6253 146.247 58.8326 144.705C54.0399 143.163 49.8117 140.233 46.6829 136.286C43.554 132.339 41.6649 127.552 41.2545 122.53C40.8441 117.509 41.9308 112.478 44.3772 108.074C46.8236 103.671 50.5198 100.092 54.9984 97.791C61.0038 94.7055 67.9879 94.1337 74.4145 96.2016C80.841 98.2695 86.1836 102.808 89.267 108.818Z" fill="url(#paint37_radial)"/>
<g style="mix-blend-mode:multiply">
<path style="mix-blend-mode:multiply" d="M89.267 108.818C91.5664 113.3 92.4863 118.364 91.91 123.369C91.3338 128.374 89.2875 133.096 86.0299 136.938C82.7722 140.779 78.4495 143.567 73.6084 144.95C68.7673 146.333 63.6253 146.247 58.8326 144.705C54.0399 143.163 49.8117 140.233 46.6829 136.286C43.554 132.339 41.6649 127.552 41.2545 122.53C40.8441 117.509 41.9308 112.478 44.3772 108.074C46.8236 103.671 50.5198 100.092 54.9984 97.791C61.0038 94.7055 67.9879 94.1337 74.4145 96.2016C80.841 98.2695 86.1836 102.808 89.267 108.818Z" fill="url(#paint38_radial)"/>
<g style="mix-blend-mode:multiply">
<path style="mix-blend-mode:multiply" d="M89.267 108.818C91.5664 113.3 92.4863 118.364 91.91 123.369C91.3338 128.374 89.2875 133.096 86.0299 136.938C82.7722 140.779 78.4495 143.567 73.6084 144.95C68.7673 146.333 63.6253 146.247 58.8326 144.705C54.0399 143.163 49.8117 140.233 46.6829 136.286C43.554 132.339 41.6649 127.552 41.2545 122.53C40.8441 117.509 41.9308 112.478 44.3772 108.074C46.8236 103.671 50.5198 100.092 54.9984 97.791C61.0038 94.7055 67.9879 94.1337 74.4145 96.2016C80.841 98.2695 86.1836 102.808 89.267 108.818Z" fill="url(#paint39_radial)"/>
</g>
</g>
<defs>
<linearGradient id="paint0_linear" x1="92.6597" y1="105.914" x2="90.482" y2="89.5944" gradientUnits="userSpaceOnUse">
<stop stop-color="#93278F"/>
<stop offset="0.05" stop-color="#983294"/>
<stop offset="0.14" stop-color="#A64EA3"/>
<stop offset="0.25" stop-color="#BD7CBB"/>
<stop offset="0.39" stop-color="#DDBADB"/>
<stop offset="0.52" stop-color="#FFFEFE"/>
<stop offset="0.62" stop-color="#FEE7C3"/>
<stop offset="0.71" stop-color="#FDD392"/>
<stop offset="0.8" stop-color="#FCC46C"/>
<stop offset="0.88" stop-color="#FBB951"/>
<stop offset="0.95" stop-color="#FBB241"/>
<stop offset="1" stop-color="#FBB03B"/>
</linearGradient>
<radialGradient id="paint1_radial" cx="0" cy="0" r="1" gradientUnits="userSpaceOnUse" gradientTransform="translate(157.152 132.417) rotate(134.977) scale(10.0358 0.456173)">
<stop stop-color="white"/>
<stop offset="0.05" stop-color="#E2E2E2"/>
<stop offset="0.15" stop-color="#ADADAD"/>
<stop offset="0.26" stop-color="#7F7F7F"/>
<stop offset="0.37" stop-color="#585858"/>
<stop offset="0.48" stop-color="#383838"/>
<stop offset="0.6" stop-color="#1F1F1F"/>
<stop offset="0.72" stop-color="#0E0E0E"/>
<stop offset="0.85" stop-color="#030303"/>
<stop offset="1"/>
</radialGradient>
<linearGradient id="paint2_linear" x1="41.5052" y1="136.988" x2="43.1111" y2="149.023" gradientUnits="userSpaceOnUse">
<stop offset="0.2" stop-color="#5F005B"/>
<stop offset="0.23" stop-color="#660B62"/>
<stop offset="0.28" stop-color="#772774"/>
<stop offset="0.34" stop-color="#945592"/>
<stop offset="0.41" stop-color="#BC94BA"/>
<stop offset="0.49" stop-color="#EEE5EE"/>
<stop offset="0.52" stop-color="white"/>
<stop offset="0.59" stop-color="#C3D3FF"/>
<stop offset="0.67" stop-color="#88A8FF"/>
<stop offset="0.75" stop-color="#5785FF"/>
<stop offset="0.83" stop-color="#3269FF"/>
<stop offset="0.89" stop-color="#1655FF"/>
<stop offset="0.95" stop-color="#0649FF"/>
<stop offset="1" stop-color="#0045FF"/>
</linearGradient>
<radialGradient id="paint3_radial" cx="0" cy="0" r="1" gradientUnits="userSpaceOnUse" gradientTransform="translate(7553.01 -8883.61) rotate(-45.0233) scale(296.148 13.1142)">
<stop stop-color="white"/>
<stop offset="0.05" stop-color="#E2E2E2"/>
<stop offset="0.15" stop-color="#ADADAD"/>
<stop offset="0.26" stop-color="#7F7F7F"/>
<stop offset="0.37" stop-color="#585858"/>
<stop offset="0.48" stop-color="#383838"/>
<stop offset="0.6" stop-color="#1F1F1F"/>
<stop offset="0.72" stop-color="#0E0E0E"/>
<stop offset="0.85" stop-color="#030303"/>
<stop offset="1"/>
</radialGradient>
<linearGradient id="paint4_linear" x1="36356.6" y1="-5854.77" x2="33663.5" y2="-5567.74" gradientUnits="userSpaceOnUse">
<stop stop-color="#93278F"/>
<stop offset="0.05" stop-color="#983294"/>
<stop offset="0.14" stop-color="#A64EA3"/>
<stop offset="0.25" stop-color="#BD7CBB"/>
<stop offset="0.39" stop-color="#DDBADB"/>
<stop offset="0.52" stop-color="#FFFEFE"/>
<stop offset="0.62" stop-color="#FEE7C3"/>
<stop offset="0.71" stop-color="#FDD392"/>
<stop offset="0.8" stop-color="#FCC46C"/>
<stop offset="0.88" stop-color="#FBB951"/>
<stop offset="0.95" stop-color="#FBB241"/>
<stop offset="1" stop-color="#FBB03B"/>
</linearGradient>
<radialGradient id="paint5_radial" cx="0" cy="0" r="1" gradientUnits="userSpaceOnUse" gradientTransform="translate(36721.5 -7536.8) rotate(47.5127) scale(1289.43 61.1551)">
<stop stop-color="white"/>
<stop offset="0.05" stop-color="#E2E2E2"/>
<stop offset="0.15" stop-color="#ADADAD"/>
<stop offset="0.26" stop-color="#7F7F7F"/>
<stop offset="0.37" stop-color="#585858"/>
<stop offset="0.48" stop-color="#383838"/>
<stop offset="0.6" stop-color="#1F1F1F"/>
<stop offset="0.72" stop-color="#0E0E0E"/>
<stop offset="0.85" stop-color="#030303"/>
<stop offset="1"/>
</radialGradient>
<linearGradient id="paint6_linear" x1="98.1221" y1="142.71" x2="85.2631" y2="144.081" gradientUnits="userSpaceOnUse">
<stop stop-color="#39B54A"/>
<stop offset="0.09" stop-color="#6EC97B"/>
<stop offset="0.19" stop-color="#A2DCAA"/>
<stop offset="0.29" stop-color="#CAEBCF"/>
<stop offset="0.37" stop-color="#E7F6E9"/>
<stop offset="0.45" stop-color="#F9FDF9"/>
<stop offset="0.5" stop-color="white"/>
<stop offset="0.63" stop-color="#DDBADB"/>
<stop offset="0.76" stop-color="#BD7CBB"/>
<stop offset="0.87" stop-color="#A64EA3"/>
<stop offset="0.95" stop-color="#983294"/>
<stop offset="1" stop-color="#93278F"/>
</linearGradient>
<radialGradient id="paint7_radial" cx="0" cy="0" r="1" gradientUnits="userSpaceOnUse" gradientTransform="translate(20134.5 -1657.93) rotate(47.5126) scale(312.896 14.8405)">
<stop stop-color="white"/>
<stop offset="0.05" stop-color="#E2E2E2"/>
<stop offset="0.15" stop-color="#ADADAD"/>
<stop offset="0.26" stop-color="#7F7F7F"/>
<stop offset="0.37" stop-color="#585858"/>
<stop offset="0.48" stop-color="#383838"/>
<stop offset="0.6" stop-color="#1F1F1F"/>
<stop offset="0.72" stop-color="#0E0E0E"/>
<stop offset="0.85" stop-color="#030303"/>
<stop offset="1"/>
</radialGradient>
<linearGradient id="paint8_linear" x1="90.3716" y1="82.9819" x2="61.1409" y2="54.3159" gradientUnits="userSpaceOnUse">
<stop stop-color="#93278F"/>
<stop offset="0.05" stop-color="#983294"/>
<stop offset="0.14" stop-color="#A64EA3"/>
<stop offset="0.25" stop-color="#BD7CBB"/>
<stop offset="0.39" stop-color="#DDBADB"/>
<stop offset="0.52" stop-color="white"/>
<stop offset="0.59" stop-color="#FFC3C3"/>
<stop offset="0.67" stop-color="#FF8888"/>
<stop offset="0.75" stop-color="#FF5757"/>
<stop offset="0.83" stop-color="#FF3232"/>
<stop offset="0.89" stop-color="#FF1616"/>
<stop offset="0.95" stop-color="#FF0606"/>
<stop offset="1" stop-color="#FF0000"/>
</linearGradient>
<radialGradient id="paint9_radial" cx="0" cy="0" r="1" gradientUnits="userSpaceOnUse" gradientTransform="translate(60593 293.291) rotate(97.3465) scale(658.299 143.674)">
<stop stop-color="white"/>
<stop offset="0.05" stop-color="#E2E2E2"/>
<stop offset="0.15" stop-color="#ADADAD"/>
<stop offset="0.26" stop-color="#7F7F7F"/>
<stop offset="0.37" stop-color="#585858"/>
<stop offset="0.48" stop-color="#383838"/>
<stop offset="0.6" stop-color="#1F1F1F"/>
<stop offset="0.72" stop-color="#0E0E0E"/>
<stop offset="0.85" stop-color="#030303"/>
<stop offset="1"/>
</radialGradient>
<linearGradient id="paint10_linear" x1="124.926" y1="56.2541" x2="104.836" y2="91.1064" gradientUnits="userSpaceOnUse">
<stop stop-color="#FBAE17"/>
<stop offset="1" stop-color="white"/>
</linearGradient>
<radialGradient id="paint11_radial" cx="0" cy="0" r="1" gradientUnits="userSpaceOnUse" gradientTransform="translate(102.375 71.4711) rotate(-91.3889) scale(37.1843 37.1541)">
<stop stop-color="white"/>
<stop offset="0.97" stop-color="#FBAE17"/>
</radialGradient>
<radialGradient id="paint12_radial" cx="0" cy="0" r="1" gradientUnits="userSpaceOnUse" gradientTransform="translate(121.439 69.7632) rotate(-150.04) scale(21.3101 21.3188)">
<stop stop-color="#FBAE17"/>
<stop offset="0.26" stop-color="#FCC455"/>
<stop offset="0.86" stop-color="#FFFAF1"/>
<stop offset="0.92" stop-color="white"/>
</radialGradient>
<radialGradient id="paint13_radial" cx="0" cy="0" r="1" gradientUnits="userSpaceOnUse" gradientTransform="translate(102.375 71.4711) rotate(-91.3889) scale(37.1843 37.1541)">
<stop stop-color="white"/>
<stop offset="1" stop-color="#FBAE17"/>
</radialGradient>
<radialGradient id="paint14_radial" cx="0" cy="0" r="1" gradientUnits="userSpaceOnUse" gradientTransform="translate(121.439 69.7632) rotate(-150.04) scale(21.3101 21.3188)">
<stop stop-color="#FBAE17"/>
<stop offset="0.26" stop-color="#FCC455"/>
<stop offset="0.86" stop-color="#FFFAF1"/>
<stop offset="0.92" stop-color="white"/>
</radialGradient>
<linearGradient id="paint15_linear" x1="119.727" y1="147.859" x2="100.394" y2="181.398" gradientUnits="userSpaceOnUse">
<stop stop-color="#39B54A"/>
<stop offset="1" stop-color="white"/>
</linearGradient>
<radialGradient id="paint16_radial" cx="0" cy="0" r="1" gradientUnits="userSpaceOnUse" gradientTransform="translate(98.029 162.502) rotate(-91.3889) scale(35.7821 35.753)">
<stop stop-color="white"/>
<stop offset="0.97" stop-color="#39B54A"/>
</radialGradient>
<radialGradient id="paint17_radial" cx="0" cy="0" r="1" gradientUnits="userSpaceOnUse" gradientTransform="translate(116.372 160.861) rotate(-150.04) scale(20.5054 20.5137)">
<stop stop-color="#39B54A"/>
<stop offset="0.3" stop-color="#77CC83"/>
<stop offset="0.92" stop-color="white"/>
</radialGradient>
<radialGradient id="paint18_radial" cx="0" cy="0" r="1" gradientUnits="userSpaceOnUse" gradientTransform="translate(98.029 162.502) rotate(-91.3889) scale(35.7821 35.753)">
<stop stop-color="white"/>
<stop offset="1" stop-color="#39B54A"/>
</radialGradient>
<radialGradient id="paint19_radial" cx="0" cy="0" r="1" gradientUnits="userSpaceOnUse" gradientTransform="translate(116.372 160.861) rotate(-150.04) scale(20.5054 20.5137)">
<stop stop-color="#39B54A"/>
<stop offset="0.3" stop-color="#77CC83"/>
<stop offset="0.92" stop-color="white"/>
</radialGradient>
<linearGradient id="paint20_linear" x1="93.2866" y1="3.16172" x2="70.7097" y2="40.1332" gradientUnits="userSpaceOnUse">
<stop stop-color="#FF0000"/>
<stop offset="1" stop-color="white"/>
</linearGradient>
<radialGradient id="paint21_radial" cx="0" cy="0" r="1" gradientUnits="userSpaceOnUse" gradientTransform="translate(68.5985 18.9353) rotate(-89.94) scale(40.0416 40.0091)">
<stop stop-color="white"/>
<stop offset="0.97" stop-color="#FF0000"/>
</radialGradient>
<radialGradient id="paint22_radial" cx="0" cy="0" r="1" gradientUnits="userSpaceOnUse" gradientTransform="translate(89.1655 17.609) rotate(-148.589) scale(22.9479 22.9564)">
<stop stop-color="#F50000"/>
<stop offset="0.24" stop-color="#F73E3E"/>
<stop offset="0.79" stop-color="#FEDADA"/>
<stop offset="0.92" stop-color="white"/>
</radialGradient>
<radialGradient id="paint23_radial" cx="0" cy="0" r="1" gradientUnits="userSpaceOnUse" gradientTransform="translate(68.5985 18.9353) rotate(-89.94) scale(40.0416 40.0091)">
<stop stop-color="white"/>
<stop offset="1" stop-color="#FF0000"/>
</radialGradient>
<radialGradient id="paint24_radial" cx="0" cy="0" r="1" gradientUnits="userSpaceOnUse" gradientTransform="translate(89.1655 17.609) rotate(-148.589) scale(22.9479 22.9564)">
<stop stop-color="#FF0000"/>
<stop offset="0.24" stop-color="#FF3E3E"/>
<stop offset="0.79" stop-color="#FFDADA"/>
<stop offset="0.92" stop-color="white"/>
</radialGradient>
<linearGradient id="paint25_linear" x1="21.1293" y1="57.9776" x2="7.70565" y2="81.2654" gradientUnits="userSpaceOnUse">
<stop stop-color="#FFD500"/>
<stop offset="1" stop-color="white"/>
</linearGradient>
<radialGradient id="paint26_radial" cx="0" cy="0" r="1" gradientUnits="userSpaceOnUse" gradientTransform="translate(6.06359 68.1492) rotate(-91.3889) scale(24.8442 24.824)">
<stop stop-color="white"/>
<stop offset="0.97" stop-color="#FFD500"/>
</radialGradient>
<radialGradient id="paint27_radial" cx="0" cy="0" r="1" gradientUnits="userSpaceOnUse" gradientTransform="translate(18.8 67.0045) rotate(-150.04) scale(14.2391 14.2449)">
<stop stop-color="#FFD500"/>
<stop offset="0.24" stop-color="#FFDF3E"/>
<stop offset="0.79" stop-color="#FFF9DA"/>
<stop offset="0.92" stop-color="white"/>
</radialGradient>
<radialGradient id="paint28_radial" cx="0" cy="0" r="1" gradientUnits="userSpaceOnUse" gradientTransform="translate(6.06359 68.1492) rotate(-91.3889) scale(24.8442 24.824)">
<stop stop-color="white"/>
<stop offset="1" stop-color="#FFD500"/>
</radialGradient>
<radialGradient id="paint29_radial" cx="0" cy="0" r="1" gradientUnits="userSpaceOnUse" gradientTransform="translate(18.8 67.0045) rotate(-150.04) scale(14.2391 14.2449)">
<stop stop-color="#FFD500"/>
<stop offset="0.24" stop-color="#FFDF3E"/>
<stop offset="0.79" stop-color="#FFF9DA"/>
<stop offset="0.92" stop-color="white"/>
</radialGradient>
<linearGradient id="paint30_linear" x1="34.1724" y1="146.838" x2="20.4854" y2="170.583" gradientUnits="userSpaceOnUse">
<stop stop-color="#0071BC"/>
<stop offset="1" stop-color="white"/>
</linearGradient>
<radialGradient id="paint31_radial" cx="0" cy="0" r="1" gradientUnits="userSpaceOnUse" gradientTransform="translate(18.8136 157.204) rotate(-91.3889) scale(25.3329 25.3123)">
<stop stop-color="white"/>
<stop offset="0.97" stop-color="#29ABE2"/>
</radialGradient>
<radialGradient id="paint32_radial" cx="0" cy="0" r="1" gradientUnits="userSpaceOnUse" gradientTransform="translate(31.7979 156.044) rotate(-150.04) scale(14.5167 14.5226)">
<stop stop-color="#29ABE2"/>
<stop offset="0.28" stop-color="#67C3EA"/>
<stop offset="0.92" stop-color="white"/>
</radialGradient>
<radialGradient id="paint33_radial" cx="0" cy="0" r="1" gradientUnits="userSpaceOnUse" gradientTransform="translate(18.8136 157.204) rotate(-91.3889) scale(25.3329 25.3123)">
<stop stop-color="white"/>
<stop offset="1" stop-color="#29ABE2"/>
</radialGradient>
<radialGradient id="paint34_radial" cx="0" cy="0" r="1" gradientUnits="userSpaceOnUse" gradientTransform="translate(31.7979 156.044) rotate(-150.04) scale(14.5167 14.5226)">
<stop stop-color="#29ABE2"/>
<stop offset="0.28" stop-color="#67C3EA"/>
<stop offset="0.92" stop-color="white"/>
</radialGradient>
<linearGradient id="paint35_linear" x1="78.2545" y1="143.131" x2="54.9614" y2="97.8247" gradientUnits="userSpaceOnUse">
<stop stop-color="#93278F"/>
<stop offset="1" stop-color="white"/>
</linearGradient>
<radialGradient id="paint36_radial" cx="0" cy="0" r="1" gradientUnits="userSpaceOnUse" gradientTransform="translate(77.5742 108.659) rotate(31.5007) scale(47.0558 47.0732)">
<stop stop-color="white"/>
<stop offset="1" stop-color="#93278F"/>
</radialGradient>
<radialGradient id="paint37_radial" cx="0" cy="0" r="1" gradientUnits="userSpaceOnUse" gradientTransform="translate(66.2958 130.133) rotate(-27.2089) scale(26.9816 26.9944)">
<stop stop-color="#93278F"/>
<stop offset="0.28" stop-color="#B265AF"/>
<stop offset="0.92" stop-color="white"/>
</radialGradient>
<radialGradient id="paint38_radial" cx="0" cy="0" r="1" gradientUnits="userSpaceOnUse" gradientTransform="translate(77.5742 108.659) rotate(31.5007) scale(47.0558 47.0732)">
<stop stop-color="white"/>
<stop offset="1" stop-color="#93278F"/>
</radialGradient>
<radialGradient id="paint39_radial" cx="0" cy="0" r="1" gradientUnits="userSpaceOnUse" gradientTransform="translate(66.2958 130.133) rotate(-27.2089) scale(26.9816 26.9944)">
<stop stop-color="#93278F"/>
<stop offset="0.28" stop-color="#B265AF"/>
<stop offset="0.92" stop-color="white"/>
</radialGradient>
</defs>
</svg>
